<?xml version="1.0" encoding="UTF-8"?>
<svg version="1.1" xmlns="http://www.w3.org/2000/svg" width="752" height="278">
<path d="M0 0 C7.27824851 6.43744002 10.79404683 13.30920528 11.4375 23 C11.06149691 30.77073047 7.31794789 37.6860261 2.04296875 43.2421875 C-4.3347429 48.7297023 -11.6213283 51.23427207 -20 51 C-27.69360475 50.19386862 -34.11092635 46.31290557 -39.3125 40.6875 C-43.39476879 35.58188318 -45.20304533 30.520011 -45 24 C-45.53625 24.40089844 -46.0725 24.80179688 -46.625 25.21484375 C-54.38221784 30.8413784 -62.57725985 35.46544568 -71 40 C-71.62616211 40.3417627 -72.25232422 40.68352539 -72.89746094 41.03564453 C-96.41812281 53.7796347 -123.54978425 63.08298991 -150.375 64.5625 C-151.11105469 64.60568359 -151.84710938 64.64886719 -152.60546875 64.69335938 C-154.40348068 64.79843799 -156.20171958 64.89962093 -158 65 C-157.27683594 65.47179687 -157.27683594 65.47179687 -156.5390625 65.953125 C-155.90742188 66.38109375 -155.27578125 66.8090625 -154.625 67.25 C-153.99851562 67.66765625 -153.37203125 68.0853125 -152.7265625 68.515625 C-150.72931009 70.23271984 -149.99500934 71.57125967 -149 74 C-149.30257761 81.61015676 -151.39024835 88.63930081 -153.4921875 95.92578125 C-153.83879425 97.1497612 -154.185401 98.37374115 -154.54251099 99.6348114 C-155.46024096 102.87187256 -156.38386058 106.10712304 -157.31079102 109.34155273 C-158.60952201 113.87840054 -159.89763482 118.41827207 -161.18606567 122.95805359 C-161.87020982 125.36635684 -162.55680167 127.77396665 -163.24630737 130.18074036 C-167.68133808 144.36220326 -167.68133808 144.36220326 -169.375 159 C-169.38273437 160.051875 -169.39046875 161.10375 -169.3984375 162.1875 C-168.94854005 165.36324668 -168.24882812 166.74063873 -166 169 C-162.8936838 169.82412471 -161.94944064 169.96285679 -159 169 C-152.57148499 164.94100375 -148.13076641 159.25204039 -144.1875 152.875 C-143.83896973 152.32126709 -143.49043945 151.76753418 -143.13134766 151.19702148 C-136.94812283 140.54486429 -134.13828452 127.35379077 -130.6796875 115.62109375 C-130.29083171 114.3115797 -129.90159172 113.00217968 -129.51199341 111.69288635 C-127.88335186 106.21797808 -126.2598002 100.74157598 -124.64208984 95.26342773 C-123.64254232 91.87956557 -122.63755998 88.49735658 -121.62921524 85.11610603 C-121.06737779 83.22627949 -120.51162958 81.33464603 -119.95602417 79.44297791 C-119.61201569 78.29060135 -119.2680072 77.13822479 -118.91357422 75.95092773 C-118.61554901 74.94360092 -118.3175238 73.93627411 -118.01046753 72.89842224 C-116.90815144 69.73654186 -115.69190716 66.89262229 -114 64 C-105.23692973 60.36249913 -93.6319938 60.61957506 -84.83984375 64.07421875 C-81.47016386 65.76979016 -78.70515742 67.58968517 -77 71 C-77.03811123 78.56839288 -78.77156363 85.42971879 -81.125 92.5625 C-84.83593877 104.26845663 -88.06389078 116.07238716 -91.19335938 127.9453125 C-91.96061053 130.85083503 -92.73658647 133.75386898 -93.515625 136.65625 C-93.96899607 138.35410098 -94.42213648 140.05201357 -94.875 141.75 C-95.17978271 142.88356934 -95.17978271 142.88356934 -95.49072266 144.04003906 C-98.8275413 156.1497411 -98.8275413 156.1497411 -96.5 168.0625 C-96.005 168.701875 -95.51 169.34125 -95 170 C-86.30835641 168.81204179 -80.14706001 160.61764858 -75 154 C-74.36191406 153.21496094 -73.72382812 152.42992187 -73.06640625 151.62109375 C-65.94346464 141.63786759 -63.64023393 130.00937672 -60.63278198 118.30059814 C-58.67247333 110.67660573 -56.59200854 103.08753676 -54.46112061 95.50958252 C-53.82577673 93.23503112 -53.20674907 90.95646029 -52.58837891 88.67724609 C-47.99647085 72.09726491 -47.99647085 72.09726491 -41.5 67.0625 C-33.80068758 63.79029222 -25.05545462 64.05076551 -17.1875 66.5625 C-12.3337987 68.53735841 -8.19817645 71.07497176 -6 76 C-5.62582283 81.67032637 -6.67784325 86.19390926 -8.34375 91.52734375 C-8.58877258 92.34129608 -8.83379517 93.15524841 -9.08624268 93.99386597 C-9.61155938 95.73869001 -10.1406628 97.4823777 -10.67321777 99.2250061 C-12.07434606 103.82180535 -13.43621425 108.43014981 -14.796875 113.0390625 C-15.07049866 113.96525894 -15.34412231 114.89145538 -15.6260376 115.84571838 C-17.96327278 123.79621894 -20.18428591 131.77115925 -22.23461914 139.80056763 C-22.73442108 141.75168334 -23.24881707 143.6990425 -23.76367188 145.64624023 C-26.88776669 157.94736027 -26.88776669 157.94736027 -25.14355469 170.27270508 C-24.06419229 172.26746208 -24.06419229 172.26746208 -21.375 173 C-15.28244715 173 -10.90264049 170.12341974 -6.65625 165.8984375 C-2.79878553 161.94781745 0.39021272 157.63278578 3.5625 153.125 C4.10068359 152.37347656 4.63886719 151.62195313 5.19335938 150.84765625 C8.49866371 146.20988867 11.68862828 141.50491856 14.81616211 136.74560547 C16 135 16 135 17 134 C19.99894961 133.73922177 22.18003295 133.56268424 24.875 135 C26.76126953 138.35336805 26.72410827 141.33686406 26 145 C17.57487222 165.94718043 -3.73865496 190.15163851 -24.30859375 198.9921875 C-32.58169724 202.0031957 -40.58760854 203.00870228 -49 200 C-57.08815898 196.19293616 -62.4858081 190.17049616 -66 182 C-66.50279484 179.33814497 -66.90446611 176.80473374 -67.1875 174.125 C-67.26935547 173.43664062 -67.35121094 172.74828125 -67.43554688 172.0390625 C-67.63370738 170.36052643 -67.81827787 168.68039519 -68 167 C-70.84880706 169.81011359 -73.60707346 172.62946238 -76.1875 175.6875 C-85.67209423 186.54459491 -96.904876 198.7673759 -112.06640625 200.3125 C-119.05385415 200.57159424 -125.19918096 200.18688148 -131 196 C-137.340085 189.57793114 -139.09609845 182.73771494 -140 174 C-140.40089844 174.53367188 -140.80179688 175.06734375 -141.21484375 175.6171875 C-151.23244693 188.7468352 -160.13971449 198.87289913 -177 202 C-184.55136094 202.78117527 -191.09902732 200.58232351 -197.25 196.25 C-206.12845998 188.9569793 -207.68660951 180.76566636 -210 170 C-210.99966797 171.21623047 -210.99966797 171.21623047 -212.01953125 172.45703125 C-225.32290726 188.50988549 -239.78504549 204.38266863 -261.4375 207.875 C-270.83871114 208.54651508 -280.207619 206.33447226 -288 201 C-298.35039492 191.72239073 -300.73526336 180.27973472 -302 167 C-302.763125 168.0725 -303.52625 169.145 -304.3125 170.25 C-314.41617699 183.6737978 -325.73378221 194.5779274 -342 200 C-351.63466103 200.69717002 -359.33457277 200.86945811 -366.890625 194.375 C-372.1327486 189.08882494 -374.09905268 183.08427572 -376 176 C-376.66644531 176.845625 -377.33289063 177.69125 -378.01953125 178.5625 C-386.86348115 189.5457231 -396.92412618 199.606347 -411.5390625 201.4453125 C-421.68719293 201.92068317 -429.14287698 199.62745078 -437.12109375 193.32421875 C-446.26020414 184.77472839 -451.14611692 172.67267552 -452.23828125 160.30078125 C-452.90260013 133.55320511 -440.16680763 106.8386843 -423 87 C-422.236875 85.96875 -421.47375 84.9375 -420.6875 83.875 C-410.63473312 73.1208773 -396.91741522 64.88099172 -382.09375 63.78515625 C-369.37806059 63.38377717 -361.46301295 67.88884604 -352 76 C-351.13375 75.01 -350.2675 74.02 -349.375 73 C-344.79017514 69.07546432 -340.34917795 69.27831153 -334.51953125 69.5390625 C-328.34725593 70.3474182 -323.54216123 72.40375922 -318.3125 75.6875 C-315.9300821 79.88509344 -317.50738345 85.04216979 -318.64245605 89.55334473 C-319.4549071 92.33647662 -320.31890676 95.09821444 -321.203125 97.859375 C-321.52279236 98.88444153 -321.84245972 99.90950806 -322.17181396 100.96563721 C-323.1901286 104.22958044 -324.21884882 107.49009126 -325.25 110.75 C-329.11583311 122.98470422 -332.96165047 135.18854611 -335.953125 147.671875 C-336.15762268 148.52158875 -336.36212036 149.37130249 -336.57281494 150.24676514 C-338.22986609 157.42272073 -339.30968749 164.07093754 -336.9375 171.1875 C-335.02700416 173.30853025 -335.02700416 173.30853025 -331.6875 173.5625 C-322.24966775 172.12283067 -314.92144619 163.05677824 -309.49609375 155.703125 C-303.57900974 147.3618875 -298.86118882 139.75308414 -296.34375 129.83984375 C-296.11473999 128.97291397 -295.88572998 128.10598419 -295.64978027 127.21278381 C-294.92373852 124.4567302 -294.2114259 121.69735854 -293.5 118.9375 C-292.78754754 116.21095268 -292.07225302 113.48516219 -291.35668945 110.75942993 C-290.89307973 108.99247333 -290.43065959 107.22520414 -289.96948242 105.45761108 C-288.08989447 98.27193953 -286.0884278 91.12773228 -284 84 C-285.42372925 84.04314331 -285.42372925 84.04314331 -286.8762207 84.0871582 C-297.48539786 84.40864842 -297.48539786 84.40864842 -302 81 C-304.88812269 75.22375462 -302.47626302 68.09652493 -300.94921875 62.22265625 C-300.63597656 61.48917969 -300.32273437 60.75570312 -300 60 C-297.05868109 59.01956036 -295.17498335 58.88378798 -292.11328125 58.90234375 C-291.17548828 58.90556641 -290.23769531 58.90878906 -289.27148438 58.91210938 C-287.80678711 58.92467773 -287.80678711 58.92467773 -286.3125 58.9375 C-284.83040039 58.94426758 -284.83040039 58.94426758 -283.31835938 58.95117188 C-280.87884526 58.96295697 -278.43945311 58.97940989 -276 59 C-275.74347656 57.7521875 -275.48695313 56.504375 -275.22265625 55.21875 C-271.07153541 36.62405295 -264.48697695 11.64967311 -247.73046875 0.48828125 C-241.59858058 -3.03634738 -236.00650623 -4.14807989 -229 -3 C-224.96996795 -1.68601869 -222.53066036 0.24680464 -220.0625 3.75 C-217.70113192 10.97300824 -219.30537487 17.14127201 -221.5625 24.125 C-221.82627441 24.9715918 -222.09004883 25.81818359 -222.36181641 26.69042969 C-223.22954112 29.464113 -224.11416276 32.23205233 -225 35 C-225.65295803 37.06491002 -226.30529158 39.13001761 -226.95703125 41.1953125 C-228.62471625 46.46783714 -230.30709183 51.73552373 -232 57 C-230.64467163 57.03758423 -230.64467163 57.03758423 -229.26196289 57.07592773 C-225.9203572 57.17087317 -222.57893748 57.27011621 -219.23754883 57.37231445 C-217.7893576 57.4157163 -216.34111346 57.45738744 -214.89282227 57.49731445 C-212.81510441 57.55489062 -210.73765427 57.61862028 -208.66015625 57.68359375 C-207.40855713 57.72025146 -206.15695801 57.75690918 -204.86743164 57.79467773 C-202 58 -202 58 -201 59 C-200.71009298 64.12169068 -201.40258748 68.39628818 -202.8125 73.3125 C-203.14894531 74.52550781 -203.48539063 75.73851563 -203.83203125 76.98828125 C-205 80 -205 80 -208 82 C-210.46384903 82.23965047 -212.82540576 82.37242 -215.29296875 82.4140625 C-215.99899734 82.43342865 -216.70502594 82.4527948 -217.43244934 82.4727478 C-219.68401061 82.53245224 -221.93562328 82.5788914 -224.1875 82.625 C-225.71551689 82.66318829 -227.24351245 82.70224052 -228.77148438 82.7421875 C-232.51414935 82.83814596 -236.2569151 82.92221011 -240 83 C-244.94906291 99.1273322 -249.53639731 115.33795395 -253.46072388 131.74703979 C-253.8552377 133.38793639 -254.25690835 135.02713244 -254.66647339 136.66433716 C-256.88053457 145.5603788 -258.35563892 154.10632881 -258.43359375 163.296875 C-258.44391129 164.08040344 -258.45422882 164.86393188 -258.46485901 165.67120361 C-258.39325715 170.47665805 -257.64164296 173.8419543 -255 178 C-252.26160593 179.70224496 -250.5211452 180 -247.3125 180 C-232.6313963 175.56796869 -221.02171935 161.573807 -213.05226135 148.96868896 C-208.98618489 141.36141549 -206.93970456 132.61689523 -204.72265625 124.33203125 C-204.42942978 123.25354416 -204.13620331 122.17505707 -203.83409119 121.06388855 C-202.90579628 117.64794164 -201.98360485 114.23039208 -201.0625 110.8125 C-194.10593993 85.05134484 -194.10593993 85.05134484 -191.24609375 75.63671875 C-190.88056396 74.43104248 -190.51503418 73.22536621 -190.13842773 71.9831543 C-189.05515109 69.1445188 -188.07217276 67.20689505 -186 65 C-184.515 64.505 -184.515 64.505 -183 64 C-183.55429687 63.73445313 -184.10859375 63.46890625 -184.6796875 63.1953125 C-185.40414063 62.84210938 -186.12859375 62.48890625 -186.875 62.125 C-187.59429687 61.77695313 -188.31359375 61.42890625 -189.0546875 61.0703125 C-191 60 -191 60 -193 58 C-193.34490322 53.94738713 -193.30163882 52.45245824 -191 49 C-189.1171875 48.671875 -189.1171875 48.671875 -186.875 48.75 C-186.15054687 48.76546875 -185.42609375 48.7809375 -184.6796875 48.796875 C-182.58290235 48.95581498 -180.49316072 49.20823568 -178.41015625 49.49609375 C-140.55280769 54.34303507 -94.24142881 42.67513479 -62.96875 20.36328125 C-60.87825458 18.91569613 -58.73735368 17.7067918 -56.5 16.5 C-49.57856236 12.71596143 -43.40848133 8.39809834 -37.375 3.3125 C-26.84802874 -5.42327113 -11.80389802 -8.72043078 0 0 Z M-389 104 C-400.08103886 119.49679119 -410.8142554 142.43264776 -408 162 C-406.97782813 165.58736751 -405.67411594 168.32588406 -403 171 C-398.48779512 171.72195278 -395.69343523 171.16872776 -392 168.625 C-379.59315969 158.34983688 -374.66293961 141.94388577 -370.5 127 C-368.0122499 118.06961503 -365.24895617 109.82372375 -361.15429688 101.51171875 C-359.860807 99.15782976 -359.860807 99.15782976 -360 97 C-359.01 96.67 -358.02 96.34 -357 96 C-358.86566488 92.37206002 -358.86566488 92.37206002 -362 90 C-373.53521614 88.76408398 -382.02095532 95.33129187 -389 104 Z " fill="#0B0C0C" transform="translate(662,35)"/>
<path d="M0 0 C0.86625 0.12375 1.7325 0.2475 2.625 0.375 C5.83489744 5.83634826 6.84163279 11.40013091 8 17.58203125 C8.31590088 19.2019825 8.31590088 19.2019825 8.63818359 20.85466003 C9.30876928 24.29739239 9.96787583 27.74217485 10.625 31.1875 C11.28307826 34.62190624 11.94382216 38.05571292 12.61181641 41.48820496 C13.02635497 43.61962341 13.43521219 45.75215754 13.83740234 47.88594055 C15.00441809 53.90194503 16.51307472 59.62003737 18.625 65.375 C22.80975183 63.39664162 26.45394886 61.16527818 30.1875 58.4375 C70.43340462 29.96550467 126.33922839 9.35172408 176.1875 17.625 C176.87134766 17.73416748 177.55519531 17.84333496 178.25976562 17.95581055 C182.65057375 18.80211772 185.47167341 20.20405706 188.625 23.375 C189.66127703 27.00196959 190.22523531 29.17701782 188.50610352 32.6081543 C186.625 34.375 186.625 34.375 183.88256836 34.55786133 C182.22173218 34.35326294 182.22173218 34.35326294 180.52734375 34.14453125 C179.27163574 34.01771973 178.01592773 33.8909082 176.72216797 33.76025391 C176.05320496 33.69211487 175.38424194 33.62397583 174.69500732 33.55377197 C154.44020163 31.80450687 133.36009537 32.5088121 113.625 37.375 C112.76519531 37.57867187 111.90539062 37.78234375 111.01953125 37.9921875 C72.25273873 47.37966192 33.22935034 68.14727095 4.03515625 95.23828125 C-1.49550322 100.1414753 -7.60920429 105.31275597 -14.375 108.375 C-14.88546875 107.79492188 -15.3959375 107.21484375 -15.921875 106.6171875 C-22.91208013 99.10643517 -31.53207687 92.72519661 -42.1640625 92.20703125 C-53.24086689 93.04855526 -63.96606795 99.28515954 -71.375 107.375 C-73.36905858 110.24955199 -74.90466083 113.20597353 -76.375 116.375 C-76.973125 117.53 -77.57125 118.685 -78.1875 119.875 C-81.16508212 128.48072867 -80.57722627 139.47075416 -77.3125 147.875 C-73.13997663 156.41873832 -67.84547703 162.49351122 -60.09765625 167.96484375 C-59.52917969 168.43019531 -58.96070313 168.89554688 -58.375 169.375 C-58.375 170.035 -58.375 170.695 -58.375 171.375 C-71.39570008 175.92277051 -83.3200144 175.88447148 -95.796875 170.1484375 C-113.54425201 161.35224846 -125.844207 150.43241261 -132.4453125 131.42578125 C-138.0423668 113.05897702 -135.34585767 94.71669601 -127.375 77.375 C-126.68019531 76.26125 -125.98539063 75.1475 -125.26953125 74 C-123.08891202 70.24980574 -122.72767761 66.64644028 -122.5 62.375 C-121.77590488 53.249724 -120.19239605 44.34583038 -118.4375 35.375 C-118.30998352 34.7135498 -118.18246704 34.05209961 -118.05108643 33.37060547 C-113.41789486 9.41499195 -113.41789486 9.41499195 -109.375 6.375 C-105.86797136 6.2566906 -103.44937647 6.58249416 -100.57714844 8.70117188 C-98.71610589 10.44224639 -96.97645955 12.2505582 -95.25 14.125 C-94.65574219 14.74632812 -94.06148437 15.36765625 -93.44921875 16.0078125 C-92.28218713 17.22894492 -91.12121252 18.45589887 -89.96679688 19.68896484 C-88.59697844 21.13987989 -87.18863044 22.55424422 -85.7734375 23.9609375 C-84.05789424 25.68765694 -82.40488302 27.47740566 -80.796875 29.3046875 C-76.22540365 34.72766027 -76.22540365 34.72766027 -70.15234375 37.93359375 C-67.78207941 37.65447851 -65.66288439 37.05634488 -63.375 36.375 C-61.15145366 35.98710862 -58.92133988 35.63588439 -56.6875 35.3125 C-55.48738281 35.11914062 -54.28726563 34.92578125 -53.05078125 34.7265625 C-49.30372646 34.36818319 -46.10022092 34.74431996 -42.375 35.1875 C-37.70929522 35.27100255 -35.20431848 34.58213404 -31.8046875 31.5 C-28.69252301 28.31028705 -25.86137608 24.90388063 -23.06542969 21.43652344 C-20.46870126 18.26974486 -17.67428582 15.29949432 -14.875 12.3125 C-13.94780481 11.30088376 -13.02071692 10.28916916 -12.09375 9.27734375 C-11.1965625 8.31957031 -10.299375 7.36179687 -9.375 6.375 C-8.60422119 5.5387207 -8.60422119 5.5387207 -7.81787109 4.68554688 C-3.76277844 0.41808649 -3.76277844 0.41808649 0 0 Z " fill="#0B0C0B" transform="translate(205.375,26.625)"/>
<path d="M0 0 C0.35191406 1.09957031 0.70382813 2.19914063 1.06640625 3.33203125 C6.19435088 18.89579302 13.05965144 30.70643429 27 40 C26.67 40.99 26.34 41.98 26 43 C23.83984375 43.81201172 23.83984375 43.81201172 20.9375 44.4296875 C19.84711426 44.66526367 18.75672852 44.90083984 17.63330078 45.14355469 C15.83481689 45.50562012 15.83481689 45.50562012 14 45.875 C12.75847168 46.1318457 11.51694336 46.38869141 10.23779297 46.65332031 C-59.92079452 60.9195052 -59.92079452 60.9195052 -75 53 C-78.17059871 50.1691083 -80.80180977 46.95915915 -81.23828125 42.64453125 C-81.40969569 36.10371696 -81.06644678 32.21339331 -77 27 C-67.16549166 17.82112555 -50.90085585 15.92263932 -38.29541016 12.73583984 C-30.96411444 10.85216802 -23.76873547 8.75443228 -16.625 6.25 C-15.81780518 5.96850098 -15.01061035 5.68700195 -14.17895508 5.39697266 C-9.47494024 3.69628647 -4.8840238 0 0 0 Z " fill="#0B0C0B" transform="translate(194,191)"/>
<path d="M0 0 C1.48046139 0.63282972 2.96092996 1.26564265 4.44140625 1.8984375 C5.47418701 2.34654785 5.47418701 2.34654785 6.52783203 2.80371094 C8.8144309 3.78710631 11.1202298 4.71644653 13.4375 5.625 C12.73625 6.305625 12.035 6.98625 11.3125 7.6875 C10.34918285 8.66176393 9.39128843 9.64140569 8.4375 10.625 C7.921875 11.15609375 7.40625 11.6871875 6.875 12.234375 C2.14172684 17.39364275 -0.20233442 22.20342703 -0.9375 29.1875 C-0.50651243 33.13821942 0.77423543 36.03234853 2.4375 39.625 C2.80342477 41.28481564 3.14326255 42.95098889 3.4375 44.625 C-1.66701702 44.72458538 -6.77095677 44.79680331 -11.8762207 44.84472656 C-13.60939395 44.8647241 -15.34250075 44.89193148 -17.07543945 44.92675781 C-37.09634968 45.31875951 -37.09634968 45.31875951 -44.71875 38.7734375 C-45.1621875 38.18820313 -45.605625 37.60296875 -46.0625 37 C-46.5265625 36.40960938 -46.990625 35.81921875 -47.46875 35.2109375 C-50.39859099 30.96266806 -50.06945147 26.62839062 -49.5625 21.625 C-47.69434504 14.94961827 -43.22884971 10.38840768 -37.5625 6.625 C-32.71211253 3.96430335 -27.65166024 1.78217964 -22.5625 -0.375 C-21.30759766 -0.92220703 -21.30759766 -0.92220703 -20.02734375 -1.48046875 C-12.34220543 -4.63448505 -7.24486114 -3.18900438 0 0 Z " fill="#090A09" transform="translate(103.5625,201.375)"/>
<path d="M0 0 C1.5 1.3125 1.5 1.3125 3 3 C3 3.99 3 4.98 3 6 C-2.15949111 6.04960315 -7.318842 6.08581559 -12.47851562 6.10986328 C-14.23212097 6.11989313 -15.9857097 6.13352029 -17.73925781 6.15087891 C-20.26631785 6.1752603 -22.7931559 6.1865134 -25.3203125 6.1953125 C-26.48785568 6.21079636 -26.48785568 6.21079636 -27.6789856 6.22659302 C-32.18365862 6.2275122 -35.75439088 5.70651048 -40 4 C-35.81439292 2.81369077 -31.82696808 2.97330663 -27.515625 3.12109375 C-26.70003113 3.14470474 -25.88443726 3.16831573 -25.04412842 3.19264221 C-22.4458986 3.26905433 -19.84798386 3.35317484 -17.25 3.4375 C-15.48569236 3.49074319 -13.72136947 3.54348343 -11.95703125 3.59570312 C-7.63782231 3.72463899 -3.31887972 3.8604874 1 4 C0.505 2.02 0.505 2.02 0 0 Z " fill="#5E5E5E" transform="translate(104,240)"/>
<path d="M0 0 C0.66032227 0.20858643 1.32064453 0.41717285 2.00097656 0.63208008 C11.28358651 3.28212562 20.17952316 3.54740983 29.75 3.6875 C31.33336004 3.72075705 32.91669454 3.75525408 34.5 3.79101562 C38.33318966 3.8749438 42.16633109 3.94219476 46 4 C46 4.33 46 4.66 46 5 C39.565 5.495 39.565 5.495 33 6 C33.99 6.99 34.98 7.98 36 9 C34.74896484 8.67515625 34.74896484 8.67515625 33.47265625 8.34375 C22.16787648 5.54669109 13.64009326 4.67995337 3 10 C3.8125 8.0625 3.8125 8.0625 5 6 C5.99 5.67 6.98 5.34 8 5 C5.36 3.68 2.72 2.36 0 1 C0 0.67 0 0.34 0 0 Z " fill="#515150" transform="translate(471,94)"/>
<path d="M0 0 C0.66 0.33 1.32 0.66 2 1 C1.54109375 1.51949219 1.0821875 2.03898438 0.609375 2.57421875 C-7.36586045 10.70326141 -7.36586045 10.70326141 -10.0625 21.125 C-10.05347656 22.03507812 -10.04445312 22.94515625 -10.03515625 23.8828125 C-10.02355469 24.58148438 -10.01195312 25.28015625 -10 26 C-9.34 26 -8.68 26 -8 26 C-7.67 27.65 -7.34 29.3 -7 31 C-10.72764966 27.39259711 -12.15943522 25.57920247 -12.3125 20.375 C-12.21039137 13.92359111 -10.53047681 9.53530596 -5.953125 4.94921875 C-4.01276732 3.23248385 -2.04572433 1.5889121 0 0 Z " fill="#686A68" transform="translate(66,208)"/>
<path d="M0 0 C0 0.33 0 0.66 0 1 C-0.59425781 0.96334229 -1.18851563 0.92668457 -1.80078125 0.88891602 C-14.83874257 -0.47837559 -14.83874257 -0.47837559 -26.25 4.375 C-27.83939958 6.21416237 -28.91578539 7.83157078 -30 10 C-30.66 10 -31.32 10 -32 10 C-30.75905393 5.03621571 -29.366661 2.71703351 -25 0 C-16.89625501 -3.24149799 -8.13176511 -2.89129426 0 0 Z " fill="#666666" transform="translate(646,102)"/>
<path d="M0 0 C0 0.33 0 0.66 0 1 C-1.14597656 0.97679688 -2.29195312 0.95359375 -3.47265625 0.9296875 C-5.0025976 0.91091521 -6.53254606 0.89271659 -8.0625 0.875 C-8.81466797 0.85824219 -9.56683594 0.84148437 -10.34179688 0.82421875 C-15.78150609 0.7771217 -21.43033943 0.82002422 -25.77734375 4.5078125 C-26.16019531 5.04148437 -26.54304687 5.57515625 -26.9375 6.125 C-27.618125 7.07375 -28.29875 8.0225 -29 9 C-30 7 -30 7 -29.0625 4 C-27 1 -27 1 -23.6875 -0.375 C-16.04515515 -1.78130509 -7.563482 -1.7804807 0 0 Z " fill="#7E7F7D" transform="translate(575,98)"/>
<path d="M0 0 C0.66 0.33 1.32 0.66 2 1 C-2.75 6.875 -2.75 6.875 -5 8 C-5.31241371 10.54941373 -5.51303421 13.00361513 -5.625 15.5625 C-5.66367188 16.27341797 -5.70234375 16.98433594 -5.7421875 17.71679688 C-5.83671783 19.47742425 -5.91945817 21.23867728 -6 23 C-8.55403148 20.44596852 -8.32607024 19.35990775 -8.375 15.8125 C-8.27409355 10.31309859 -7.28882297 7.38509729 -4 3 C-1.75 1.0625 -1.75 1.0625 0 0 Z " fill="#575757" transform="translate(121,215)"/>
<path d="M0 0 C0.66 0.33 1.32 0.66 2 1 C0.09042286 3.13176064 -1.82708763 5.2553245 -3.75 7.375 C-4.55824219 8.27992187 -4.55824219 8.27992187 -5.3828125 9.203125 C-5.91132813 9.78320312 -6.43984375 10.36328125 -6.984375 10.9609375 C-7.70705566 11.76217041 -7.70705566 11.76217041 -8.44433594 12.57958984 C-10.16979726 14.1550346 -11.87547258 15.04997548 -14 16 C-10.88847163 9.29260159 -5.73988517 4.50990977 0 0 Z " fill="#60615F" transform="translate(250,111)"/>
<path d="M0 0 C8.415 1.98 8.415 1.98 17 4 C14.33527069 5.7764862 12.43458592 6.61943013 9.4375 7.5625 C7.18550657 8.27618593 5.11355296 8.94322352 3 10 C3.8125 8.0625 3.8125 8.0625 5 6 C5.99 5.67 6.98 5.34 8 5 C5.36 3.68 2.72 2.36 0 1 C0 0.67 0 0.34 0 0 Z " fill="#727272" transform="translate(471,94)"/>
<path d="M0 0 C0 0.33 0 0.66 0 1 C-2.70726366 1.5064814 -5.41557124 2.005351 -8.125 2.5 C-9.26582031 2.71462891 -9.26582031 2.71462891 -10.4296875 2.93359375 C-14.68042914 3.70312456 -18.65859197 4.16644376 -23 4 C-22.360625 3.690625 -21.72125 3.38125 -21.0625 3.0625 C-19.06389179 2.1654837 -19.06389179 2.1654837 -18 1 C-16.10985552 0.76189471 -14.21188854 0.58468509 -12.3125 0.4375 C-11.27738281 0.35371094 -10.24226562 0.26992187 -9.17578125 0.18359375 C-6.10862687 0.00627978 -3.07144125 -0.03223402 0 0 Z " fill="#888986" transform="translate(197,238)"/>
<path d="M0 0 C0.66 0 1.32 0 2 0 C2 6.27 2 12.54 2 19 C1.67 19 1.34 19 1 19 C0.63843896 16.20910735 0.28545167 13.41759278 -0.0625 10.625 C-0.16626953 9.8309375 -0.27003906 9.036875 -0.37695312 8.21875 C-1.11328125 2.2265625 -1.11328125 2.2265625 0 0 Z " fill="#828282" transform="translate(361,198)"/>
<path d="M0 0 C0.33 0.66 0.66 1.32 1 2 C-1.17532714 7.07576332 -5.53719346 10.87783494 -10 14 C-10.99 14 -11.98 14 -13 14 C-12.31292969 13.32453125 -11.62585938 12.6490625 -10.91796875 11.953125 C-10.01691406 11.06109375 -9.11585938 10.1690625 -8.1875 9.25 C-6.84751953 7.92742187 -6.84751953 7.92742187 -5.48046875 6.578125 C-3.44787848 4.46551149 -1.68226182 2.39205335 0 0 Z " fill="#727271" transform="translate(587,189)"/>
<path d="M0 0 C0.94875 0.04125 1.8975 0.0825 2.875 0.125 C3.205 0.785 3.535 1.445 3.875 2.125 C2.76125 2.24875 2.76125 2.24875 1.625 2.375 C-1.64861097 3.26780299 -2.84465318 4.68738789 -5.125 7.125 C-5.785 7.125 -6.445 7.125 -7.125 7.125 C-4.56730769 0.18269231 -4.56730769 0.18269231 0 0 Z " fill="#60615F" transform="translate(682.125,168.875)"/>
<path d="M0 0 C0.66 0 1.32 0 2 0 C2.33 4.62 2.66 9.24 3 14 C0.49360113 11.49360113 0.4120229 9.89489895 -0.1875 6.4375 C-0.36667969 5.44621094 -0.54585938 4.45492187 -0.73046875 3.43359375 C-0.81941406 2.63050781 -0.90835937 1.82742187 -1 1 C-0.67 0.67 -0.34 0.34 0 0 Z " fill="#7B7C7B" transform="translate(287,206)"/>
<path d="M0 0 C1.31534494 3.65857532 0.65468309 6.08026481 -0.4375 9.75 C-0.86869141 11.22726563 -0.86869141 11.22726563 -1.30859375 12.734375 C-1.53675781 13.48203125 -1.76492188 14.2296875 -2 15 C-2.33 15 -2.66 15 -3 15 C-3.3152595 9.01006953 -2.68219822 5.36439644 0 0 Z " fill="#747475" transform="translate(500,153)"/>
<path d="M0 0 C0.66 0.33 1.32 0.66 2 1 C-3.14285714 7.57142857 -3.14285714 7.57142857 -7 9 C-5.44499019 5.18315774 -2.96404505 2.80804268 0 0 Z " fill="#616261" transform="translate(121,215)"/>
<path d="M0 0 C0 3.33156142 -0.45664761 5.06028115 -2 8 C-4.625 9.8125 -4.625 9.8125 -7 11 C-5.22054913 6.95579349 -2.60470327 3.53921513 0 0 Z " fill="#767774" transform="translate(671,181)"/>
<path d="M0 0 C0.66 0.33 1.32 0.66 2 1 C-0.19924069 4.35673579 -2.38269598 6.23772368 -6 8 C-6.66 7.67 -7.32 7.34 -8 7 C-5.36 4.69 -2.72 2.38 0 0 Z " fill="#60615F" transform="translate(415,35)"/>
<path d="M0 0 C0.33 0.66 0.66 1.32 1 2 C-0.125 4.5625 -0.125 4.5625 -2 7 C-4.6875 7.8125 -4.6875 7.8125 -7 8 C-6.02133662 6.85373678 -5.04205413 5.70800212 -4.0625 4.5625 C-3.51722656 3.92441406 -2.97195313 3.28632813 -2.41015625 2.62890625 C-1.63204305 1.73008851 -0.84063472 0.84063472 0 0 Z " fill="#585857" transform="translate(659,197)"/>
<path d="M0 0 C0.66 0.33 1.32 0.66 2 1 C-0.75 3.0625 -0.75 3.0625 -4 5 C-6.203125 4.62109375 -6.203125 4.62109375 -8 4 C-6.71349294 3.30289269 -5.42059335 2.61757124 -4.125 1.9375 C-3.40570313 1.55464844 -2.68640625 1.17179687 -1.9453125 0.77734375 C-1.30335938 0.52082031 -0.66140625 0.26429687 0 0 Z " fill="#767675" transform="translate(266,102)"/>
<path d="M0 0 C1.9375 0.8125 1.9375 0.8125 4 2 C4.33 2.99 4.66 3.98 5 5 C2.69 5.33 0.38 5.66 -2 6 C-1.01 5.34 -0.02 4.68 1 4 C0.67 2.68 0.34 1.36 0 0 Z " fill="#7A7C79" transform="translate(142,193)"/>
</svg>
