<?xml version="1.0" encoding="UTF-8"?>
<svg version="1.1" xmlns="http://www.w3.org/2000/svg" width="958" height="400">
<path d="M0 0 C1.94091797 0.79492188 1.94091797 0.79492188 3.47998047 3.86523438 C5.7057169 10.63255445 6.92858855 17.69330266 8.31591797 24.66992188 C8.62089603 26.17896307 8.92632051 27.6879141 9.23217773 29.19677734 C11.89471493 42.37787908 14.45198375 55.57999114 16.94091797 68.79492188 C17.50327148 68.72635986 18.065625 68.65779785 18.64501953 68.5871582 C55.86704083 64.42112636 95.17790617 70.67483456 125.17138672 94.43164062 C141.27936345 108.17681118 152.11335595 124.085622 154.71044922 145.55664062 C155.80236193 160.89893953 150.78748553 174.66677077 146.20361328 189.11962891 C143.26354491 198.39365552 141.01431564 207.68247161 139.12841797 217.23242188 C138.90911621 218.32280762 138.68981445 219.41319336 138.46386719 220.53662109 C135.9486774 232.44526021 135.9486774 232.44526021 138.94091797 243.79492188 C145.56861219 243.00701417 148.76181898 238.65923028 152.94091797 233.79492188 C156.15968786 229.61130227 159.07433788 225.22556665 161.94091797 220.79492188 C162.37863525 220.20211426 162.81635254 219.60930664 163.26733398 218.99853516 C167.18754953 213.4249774 167.85409527 208.49322514 168.37841797 201.79492188 C171.66335647 169.31563667 177.19749245 126.28177291 191.94091797 96.79492188 C190.96034424 96.97667969 190.96034424 96.97667969 189.95996094 97.16210938 C157.22091781 103.1492036 157.22091781 103.1492036 149.31591797 98.60742188 C146.35328014 96.35199437 143.8471817 94.02728212 141.94091797 90.79492188 C142.35107422 88.64257812 142.35107422 88.64257812 142.94091797 86.79492188 C144.22119873 86.83552734 145.50147949 86.87613281 146.82055664 86.91796875 C152.03140751 86.9133922 156.80411833 85.98546142 161.86669922 84.82617188 C162.77671188 84.62640747 163.68672455 84.42664307 164.62431335 84.2208252 C167.50272313 83.58769342 170.37814361 82.94213009 173.25341797 82.29492188 C176.14690733 81.64957148 179.04094864 81.00695888 181.93608093 80.36901855 C183.73011051 79.97311516 185.52314412 79.57266412 187.3150177 79.16711426 C188.12653793 78.98692749 188.93805817 78.80674072 189.77416992 78.62109375 C190.48426712 78.46120972 191.19436432 78.30132568 191.92597961 78.13659668 C193.94091797 77.79492188 193.94091797 77.79492188 197.94091797 77.79492188 C198.08207031 77.21911377 198.22322266 76.64330566 198.36865234 76.05004883 C200.61281177 67.35886687 203.56751078 58.94246628 206.55664062 50.48657227 C207.44451444 47.97223717 208.32392681 45.45505033 209.20263672 42.9375 C209.77114506 41.3207869 210.3401384 39.70424425 210.90966797 38.08789062 C211.16913208 37.3440361 211.42859619 36.60018158 211.69592285 35.83378601 C213.17716214 31.66382333 214.74979817 27.65721588 216.94091797 23.79492188 C222.15391896 21.44129083 227.60012601 22.77317571 232.75341797 24.66992188 C233.62611328 25.03859375 234.49880859 25.40726563 235.39794922 25.78710938 C237.89074803 26.86639901 237.89074803 26.86639901 240.46044922 27.27929688 C243.22920599 27.85484946 245.31824882 28.85325922 247.81591797 30.16992188 C250.84219242 31.748651 253.80691122 33.16449874 257.00341797 34.35742188 C259.94091797 35.79492187 259.94091797 35.79492187 261.06591797 37.73242188 C260.8931558 40.58299766 259.90280273 41.7629698 257.94091797 43.79492188 C256.45591797 44.28992187 256.45591797 44.28992187 254.94091797 44.79492188 C253.58047423 47.47819696 253.58047423 47.47819696 252.46044922 50.79882812 C252.01894531 52.01376953 251.57744141 53.22871094 251.12255859 54.48046875 C250.66592829 55.77269811 250.20955135 57.06501703 249.75341797 58.35742188 C249.28638066 59.65402873 248.81829443 60.95025828 248.34912109 62.24609375 C247.20265593 65.42546623 246.06713858 68.60833357 244.94091797 71.79492188 C246.42978516 71.68664062 246.42978516 71.68664062 247.94873047 71.57617188 C260.40884594 70.70592687 272.61465185 70.4364805 285.06591797 71.66992188 C285.88423096 71.74831299 286.70254395 71.8267041 287.5456543 71.9074707 C288.7042395 72.03351685 288.7042395 72.03351685 289.88623047 72.16210938 C290.57217285 72.2354248 291.25811523 72.30874023 291.96484375 72.38427734 C294.19946216 72.84864949 295.94800457 73.6990145 297.94091797 74.79492188 C296.94091797 75.79492188 296.94091797 75.79492188 295.09326172 75.89257812 C293.04248047 75.86002604 290.99169922 75.82747396 288.94091797 75.79492188 C288.94091797 76.45492187 288.94091797 77.11492187 288.94091797 77.79492188 C290.59091797 77.79492188 292.24091797 77.79492188 293.94091797 77.79492188 C293.28091797 78.45492187 292.62091797 79.11492187 291.94091797 79.79492188 C290.95091797 79.79492188 289.96091797 79.79492188 288.94091797 79.79492188 C288.94091797 80.45492187 288.94091797 81.11492187 288.94091797 81.79492188 C289.89804688 81.86839844 289.89804688 81.86839844 290.87451172 81.94335938 C291.70080078 82.018125 292.52708984 82.09289062 293.37841797 82.16992188 C294.61398437 82.27433594 294.61398437 82.27433594 295.87451172 82.38085938 C296.55642578 82.5175 297.23833984 82.65414062 297.94091797 82.79492188 C298.27091797 83.45492187 298.60091797 84.11492187 298.94091797 84.79492188 C296.13479941 86.3471581 293.83546243 87.11220454 290.65405273 87.46508789 C289.81540176 87.5618129 288.97675079 87.6585379 288.11268616 87.75819397 C286.761157 87.90205788 286.761157 87.90205788 285.38232422 88.04882812 C284.44218979 88.15460678 283.50205536 88.26038544 282.53343201 88.36936951 C280.54083072 88.59217368 278.54781822 88.81132606 276.55444336 89.02709961 C273.54500404 89.35291952 270.53686874 89.68905127 267.52880859 90.02734375 C257.67682919 91.12507699 247.83472197 92.15292602 237.94091797 92.79492188 C237.78961426 93.44654297 237.63831055 94.09816406 237.48242188 94.76953125 C235.37342581 103.53985034 232.75092252 112.11832378 230.10015869 120.73504639 C206.15863663 188.11430439 206.15863663 188.11430439 210.62841797 255.60742188 C212.80515216 258.0122105 212.80515216 258.0122105 215.94091797 258.60742188 C234.04648242 256.76617803 252.71010729 232.8293537 263.48779297 219.94580078 C266.26256452 216.53234694 268.94527519 213.05208406 271.60400391 209.54785156 C273.97561429 206.43825285 276.39832751 203.36880886 278.81591797 200.29492188 C279.25645508 199.73144043 279.69699219 199.16795898 280.15087891 198.58740234 C280.99244939 197.51348663 281.83866831 196.44319417 282.68994141 195.37695312 C283.55438377 194.28374733 284.40038988 193.1758 285.23095703 192.05664062 C286.51123047 190.38867188 286.51123047 190.38867188 288.94091797 187.79492188 C290.26091797 187.79492188 291.58091797 187.79492188 292.94091797 187.79492188 C292.4416162 193.25207926 290.94965357 197.44197156 288.37841797 202.29492188 C288.0176416 202.99141846 287.65686523 203.68791504 287.28515625 204.40551758 C286.53695962 205.8457228 285.78434277 207.28364023 285.02734375 208.71923828 C284.03627945 210.61272786 283.07540209 212.51775668 282.12451172 214.43164062 C273.88328467 230.61150108 263.36979947 245.70816095 251.94091797 259.79492188 C251.13396484 260.80554688 250.32701172 261.81617188 249.49560547 262.85742188 C240.47285153 273.23220927 227.46337179 282.60844929 213.51123047 284.18164062 C201.96701033 284.54792332 192.49462981 281.64750979 183.94091797 273.79492188 C173.76106276 264.07088108 170.38790921 253.42247472 167.94091797 239.79492188 C167.67279297 240.46394531 167.40466797 241.13296875 167.12841797 241.82226562 C165.76600589 245.16107154 164.36003624 248.47997018 162.94091797 251.79492188 C162.66747559 252.44267578 162.3940332 253.09042969 162.11230469 253.7578125 C149.97986361 282.18356578 129.22902467 304.09248811 100.94091797 316.79492188 C56.5247719 334.62795697 5.99130407 330.24977358 -40.62158203 327.35742188 C-79.09792013 324.97177972 -117.49911006 323.32264158 -156.05908203 323.79492188 C-156.77674744 323.80352234 -157.49441284 323.8121228 -158.23382568 323.82098389 C-261.58999335 325.13716834 -364.07102613 341.55382194 -504.18408203 371.16992188 C-505.56196962 371.46440216 -505.56196962 371.46440216 -506.96769333 371.76483154 C-537.31161785 377.57081688 -537.31161785 377.57081688 -567.10501099 385.46566772 C-569.05908203 385.79492188 -569.05908203 385.79492188 -571.90673828 383.95117188 C-572.98739754 383.07681723 -574.05854002 382.19061277 -575.12158203 381.29492188 C-579.26427832 377.94371158 -583.38300124 374.83977647 -587.93408203 372.04492188 C-592.37952025 369.30476157 -596.20105681 366.31001152 -600.05908203 362.79492188 C-599.68783203 362.03179687 -599.31658203 361.26867187 -598.93408203 360.48242188 C-598.64533203 359.59554688 -598.35658203 358.70867187 -598.05908203 357.79492188 C-600.30435392 354.42701404 -600.9686389 354.30943366 -604.62158203 353.10742188 C-607.07470703 352.09570313 -607.07470703 352.09570313 -609.05908203 350.79492188 C-609.81757267 348.65615467 -609.87083082 346.93114232 -609.88330078 344.66992188 C-609.87591879 342.52580176 -609.87591879 342.52580176 -612.18408203 340.79492188 C-614.05908203 338.79492188 -614.05908203 338.79492188 -614.23876953 336.84960938 C-614.06081409 334.6909325 -613.7669946 332.84200663 -613.05908203 330.79492188 C-610.26935621 328.48618326 -608.79108372 328.79492188 -605.05908203 328.79492188 C-604.72908203 330.11492187 -604.39908203 331.43492187 -604.05908203 332.79492188 C-596.53671812 333.02112724 -589.54934223 332.44603841 -582.16064453 331.06445312 C-580.6016317 330.78462585 -580.6016317 330.78462585 -579.01112366 330.49914551 C-575.56698095 329.87805686 -572.12560374 329.24286012 -568.68408203 328.60742188 C-566.22561909 328.16107115 -563.7670386 327.71536752 -561.30834961 327.27026367 C-543.6621256 324.06249179 -526.0417709 320.7185104 -508.4210968 317.37385941 C-480.69518694 312.11170068 -452.98163738 306.92315579 -425.05908203 302.79492188 C-424.21553162 302.669198 -423.3719812 302.54347412 -422.50286865 302.41394043 C-354.45289645 292.30032926 -285.20874308 286.88195182 -216.43408203 285.23242188 C-215.15742676 285.20065353 -215.15742676 285.20065353 -213.85498047 285.16824341 C-198.92045553 284.80014137 -183.99832486 284.66633994 -169.05908203 284.79492188 C-169.089375 283.66103027 -169.11966797 282.52713867 -169.15087891 281.35888672 C-169.84112368 255.1650093 -170.20811814 228.99776317 -170.05908203 202.79492188 C-166.49299723 204.18719702 -163.09880108 205.75587566 -159.69433594 207.51049805 C-145.59835214 214.76392085 -131.38495855 219.82739829 -116.05908203 223.79492188 C-116.05908203 224.45492187 -116.05908203 225.11492187 -116.05908203 225.79492188 C-117.81689453 227.05664062 -117.81689453 227.05664062 -120.18408203 228.48242188 C-125.48267076 231.89223923 -130.02527311 235.69349512 -132.05908203 241.79492188 C-132.43814246 246.41945916 -132.51584511 248.84485468 -130.49658203 253.04492188 C-127.54390932 256.37614237 -125.05824062 257.86940107 -121.05908203 259.79492188 C-120.39908203 259.79492188 -119.73908203 259.79492188 -119.05908203 259.79492188 C-119.83251953 258.34085937 -119.83251953 258.34085937 -120.62158203 256.85742188 C-122.52484721 252.29694107 -122.58002952 248.49603229 -121.05908203 243.79492188 C-112.73264947 227.74761549 -84.21823355 222.63480123 -68.63623047 217.27294922 C-63.83716691 215.62082598 -59.04077915 213.9611133 -54.24658203 212.29492188 C-53.44899475 212.01803528 -52.65140747 211.74114868 -51.82965088 211.45587158 C-39.59699203 207.19481264 -27.69516377 202.51685787 -16.05908203 196.79492188 C-15.76775391 197.75011719 -15.47642578 198.7053125 -15.17626953 199.68945312 C-11.6912374 210.80232049 -7.11702363 220.45352859 -0.05908203 229.79492188 C-6.83270172 246.18633307 -33.120577 257.08637032 -48.00244141 263.55810547 C-56.46693669 266.9831161 -65.25688174 269.4100577 -74.05908203 271.79492188 C-75.05230469 272.0759375 -76.04552734 272.35695313 -77.06884766 272.64648438 C-78.05046875 272.92234375 -79.03208984 273.19820313 -80.04345703 273.48242188 C-80.93258789 273.73378906 -81.82171875 273.98515625 -82.73779297 274.24414062 C-85.05908203 274.79492188 -85.05908203 274.79492188 -88.05908203 274.79492188 C-86.53702194 277.42393475 -85.21542239 279.63858151 -83.05908203 281.79492188 C-85.36908203 282.78492188 -87.67908203 283.77492188 -90.05908203 284.79492188 C-90.05908203 285.12492187 -90.05908203 285.45492188 -90.05908203 285.79492188 C-88.67184937 285.89196411 -88.67184937 285.89196411 -87.2565918 285.9909668 C-64.51547498 287.59735028 -41.84512656 289.63412525 -19.1784668 292.08081055 C28.46814046 297.17411478 89.29363057 301.90402365 129.94091797 271.79492188 C131.77369082 270.20405864 133.33153618 268.6188879 134.94091797 266.79492188 C135.27091797 266.46492188 135.60091797 266.13492187 135.94091797 265.79492188 C134.27029297 265.85679687 134.27029297 265.85679687 132.56591797 265.91992188 C122.27648848 265.84720506 115.59152342 263.41881052 108.28857422 256.15039062 C103.05873923 250.04226274 101.16883429 242.36589414 98.94091797 234.79492188 C98.37244141 235.50777344 97.80396484 236.220625 97.21826172 236.95507812 C88.50217814 247.76651401 79.34795773 257.21278341 66.94091797 263.79492188 C66.28091797 263.79492188 65.62091797 263.79492188 64.94091797 263.79492188 C64.94091797 264.45492188 64.94091797 265.11492187 64.94091797 265.79492188 C53.52947177 267.10046869 42.11201178 263.15582643 32.81591797 256.54492188 C23.9683422 248.87927417 19.70025682 237.24035636 18.78076172 225.80273438 C17.82306505 201.06917701 29.39353012 179.83788118 44.87060547 161.50976562 C53.89219089 151.77187407 66.36133247 144.00523948 79.75341797 143.29492188 C92.79485243 143.65902284 105.77440465 152.11355625 115.94091797 159.79492188 C116.12460938 158.72177734 116.12460938 158.72177734 116.31201172 157.62695312 C116.95227172 154.74379475 117.87643352 152.20899714 119.00341797 149.48242188 C119.36564453 148.59941406 119.72787109 147.71640625 120.10107422 146.80664062 C120.37822266 146.14277344 120.65537109 145.47890625 120.94091797 144.79492188 C127.17079595 145.30004712 132.3956603 148.12096311 137.94091797 150.79492188 C133.90115093 137.37085127 126.88480113 129.18807071 114.94091797 121.79492188 C99.20889105 114.17008336 81.67162405 112.01591241 64.94091797 117.79492188 C59.46203295 120.17529548 54.203012 122.97530152 48.94091797 125.79492188 C47.61054939 126.46748539 46.27898387 127.13780554 44.94091797 127.79492188 C44.57482422 127.35664062 44.20873047 126.91835937 43.83154297 126.46679688 C36.25145117 117.58726077 27.98102295 109.1913714 18.94091797 101.79492188 C14.23288822 103.27057299 11.04318359 106.05959574 7.44091797 109.29492188 C2.74494545 113.42268733 -2.01046442 117.39692003 -6.99658203 121.16992188 C-11.48749768 124.57023464 -15.83719543 128.06395232 -20.05908203 131.79492188 C-23.87398058 130.17675401 -26.58980183 127.70522517 -29.68408203 124.98242188 C-38.17131047 117.68987662 -46.46494928 113.36581972 -57.81298828 113.52929688 C-69.9891056 114.52565786 -82.19283589 122.82169663 -90.37548828 131.67773438 C-99.56834626 143.23812655 -106.0510363 155.55856508 -105.44189453 170.78710938 C-103.7908645 183.75948817 -98.02551987 194.38949237 -88.05908203 202.79492188 C-85.12771272 204.91150163 -82.13294361 206.89205518 -79.05908203 208.79492188 C-81.60722158 210.49368157 -83.06021209 211.21923856 -85.89501953 212.01367188 C-86.99716797 212.32884766 -86.99716797 212.32884766 -88.12158203 212.65039062 C-88.88470703 212.86308594 -89.64783203 213.07578125 -90.43408203 213.29492188 C-91.94255603 213.71966285 -93.45038789 214.14669205 -94.95751953 214.57617188 C-95.67649414 214.77726563 -96.39546875 214.97835937 -97.13623047 215.18554688 C-99.20350377 215.78084192 -99.20350377 215.78084192 -101.53564453 217.07617188 C-114.72353608 220.83247535 -138.24208019 207.281264 -149.63110352 201.03320312 C-154.82494452 198.06566455 -159.60838584 194.80784467 -164.05908203 190.79492188 C-164.72939453 190.22773438 -165.39970703 189.66054687 -166.09033203 189.07617188 C-172.33230553 183.41038054 -176.45153125 176.34583269 -180.05908203 168.79492188 C-180.05908203 167.80492187 -180.05908203 166.81492188 -180.05908203 165.79492188 C-205.77726433 176.04465 -226.33676452 194.80700134 -244.05908203 215.79492188 C-244.94755776 216.83210653 -245.8369652 217.86849343 -246.72705078 218.90429688 C-250.8668017 223.72319902 -255.00054783 228.54709475 -259.11376953 233.38867188 C-287.73277406 267.0308307 -287.73277406 267.0308307 -302.21533203 269.10351562 C-310.03829804 269.53377876 -315.4240153 266.68886065 -322.05908203 262.79492188 C-323.07099609 262.20710938 -324.08291016 261.61929687 -325.12548828 261.01367188 C-332.29630837 256.65961867 -336.73794531 252.96618115 -339.30908203 244.73242188 C-339.81181641 243.19908203 -339.81181641 243.19908203 -340.32470703 241.63476562 C-346.25258727 210.63951949 -328.1713492 172.52635088 -315.80249023 144.70141602 C-314.93798454 142.82541479 -314.93798454 142.82541479 -315.05908203 140.79492188 C-321.9548847 147.43159209 -328.122549 154.2872461 -334.05908203 161.79492188 C-334.9080073 162.83117335 -335.75831228 163.86629579 -336.60986328 164.90039062 C-355.18091069 187.67838344 -386.87762473 228.66818927 -383.74658203 259.66992188 C-383.60607422 260.43046875 -383.46556641 261.19101562 -383.32080078 261.97460938 C-383.05908203 263.79492188 -383.05908203 263.79492188 -384.05908203 265.79492188 C-385.04908203 266.12492187 -386.03908203 266.45492188 -387.05908203 266.79492188 C-388.267903 268.79508654 -388.267903 268.79508654 -389.05908203 270.79492188 C-398.22419853 270.03116217 -405.31318546 265.21741469 -412.93408203 260.35742188 C-413.69205078 259.89271484 -414.45001953 259.42800781 -415.23095703 258.94921875 C-420.6065893 255.52010101 -420.6065893 255.52010101 -422.54345703 252.41601562 C-429.8925458 215.0581477 -406.05544686 166.75621522 -391.05908203 133.79492188 C-410.00006776 152.63860802 -424.31019923 175.55012985 -437.03417969 198.92578125 C-438.0184481 200.72081673 -439.02589167 202.50073553 -440.03955078 204.27929688 C-450.13609936 222.25135458 -456.9850574 241.71526637 -463.16845703 261.31054688 C-463.50361328 262.31601562 -463.83876953 263.32148438 -464.18408203 264.35742188 C-464.45478516 265.20433594 -464.72548828 266.05125 -465.00439453 266.92382812 C-466.05908203 268.79492188 -466.05908203 268.79492188 -468.17626953 269.57226562 C-469.10826172 269.68248047 -469.10826172 269.68248047 -470.05908203 269.79492188 C-470.20345703 270.57867187 -470.34783203 271.36242187 -470.49658203 272.16992188 C-471.05908203 274.79492188 -471.05908203 274.79492188 -472.05908203 276.79492188 C-481.65453073 275.09629254 -493.12338618 272.12404348 -499.05908203 263.79492188 C-500.26220703 260.06835937 -500.26220703 260.06835937 -501.05908203 256.79492188 C-502.29271484 258.08076172 -502.29271484 258.08076172 -503.55126953 259.39257812 C-513.94096262 270.09360217 -525.69024407 281.56987172 -541.49658203 282.41992188 C-555.15067037 281.67657609 -570.07705771 272.78906491 -580.05908203 263.79492188 C-581.12241275 261.21254728 -581.05908203 259.62428834 -581.05908203 256.79492188 C-581.51682465 255.42274029 -582.01210112 254.06284908 -582.53173828 252.71289062 C-584.22517588 247.76629652 -584.55933555 243.30799561 -584.49658203 238.10742188 C-584.48900879 237.20169434 -584.48143555 236.2959668 -584.47363281 235.36279297 C-583.61910474 199.11708027 -569.11456723 162.18072211 -552.78881836 130.30273438 C-550.50207354 125.80819665 -548.57797743 121.28671869 -546.94580078 116.51757812 C-546.05908203 114.79492188 -546.05908203 114.79492188 -543.05908203 113.79492188 C-542.39908203 114.12492187 -541.73908203 114.45492187 -541.05908203 114.79492188 C-540.77033203 113.86679688 -540.48158203 112.93867187 -540.18408203 111.98242188 C-539.05908203 108.79492188 -539.05908203 108.79492188 -537.05908203 105.79492188 C-534.80908203 104.91992188 -534.80908203 104.91992188 -532.05908203 104.79492188 C-530.0227955 105.71879262 -528.03171411 106.74196286 -526.05908203 107.79492188 C-525.29112305 108.2011377 -524.52316406 108.60735352 -523.73193359 109.02587891 C-521.08281551 110.43420054 -518.4454015 111.86280021 -515.80908203 113.29492188 C-514.89900391 113.78089844 -513.98892578 114.266875 -513.05126953 114.76757812 C-512.18244141 115.24066406 -511.31361328 115.71375 -510.41845703 116.20117188 C-509.62922852 116.62720703 -508.84 117.05324219 -508.02685547 117.4921875 C-506.05908203 118.79492188 -506.05908203 118.79492188 -504.05908203 121.79492188 C-504.347165 127.07365374 -505.95299976 131.35072449 -508.23486328 136.04492188 C-508.89924625 137.45651184 -509.56337942 138.8682194 -510.22729492 140.2800293 C-510.57712433 141.01546967 -510.92695374 141.75091003 -511.28738403 142.50863647 C-538.40622759 195.94349099 -538.40622759 195.94349099 -542.37939453 253.50585938 C-541.53655709 255.91056829 -541.53655709 255.91056829 -540.05908203 258.79492188 C-533.43031535 258.51872326 -530.00920782 256.05203006 -525.05908203 251.79492188 C-524.30884766 251.15425781 -523.55861328 250.51359375 -522.78564453 249.85351562 C-517.80384317 245.47630181 -513.03016824 240.88736563 -508.30908203 236.23242188 C-507.77839111 235.71478271 -507.2477002 235.19714355 -506.70092773 234.66381836 C-505.11066188 233.07702849 -503.58297075 231.44537701 -502.05908203 229.79492188 C-501.54434326 229.28840088 -501.02960449 228.78187988 -500.49926758 228.26000977 C-494.88212014 221.99545019 -493.74584022 213.95445917 -491.962677 205.98324585 C-490.94852635 201.47807961 -489.85824031 196.99170434 -488.76220703 192.50585938 C-488.54073502 191.59871689 -488.319263 190.6915744 -488.09107971 189.75694275 C-471.30113329 122.03697313 -471.30113329 122.03697313 -455.05908203 105.79492188 C-447.85097852 105.6563045 -443.3337283 108.80394659 -437.39892578 112.65429688 C-433.40769161 115.21242123 -429.29155083 117.44619926 -425.10595703 119.66601562 C-423.05908203 120.79492188 -423.05908203 120.79492188 -422.05908203 121.79492188 C-421.17324786 127.88145986 -423.95552635 131.78251833 -426.87158203 136.85742188 C-431.83038393 145.83988121 -435.68866699 155.00927398 -439.24658203 164.60742188 C-439.49018463 165.26437042 -439.73378723 165.92131897 -439.98477173 166.59817505 C-441.36127272 170.32385774 -442.71827366 174.05625743 -444.05908203 177.79492188 C-443.62047852 177.02003418 -443.181875 176.24514648 -442.72998047 175.44677734 C-439.22330681 169.33042014 -435.62597492 163.49246367 -431.30908203 157.91992188 C-430.79667969 157.24920654 -430.28427734 156.57849121 -429.75634766 155.88745117 C-428.70504872 154.51497588 -427.65040197 153.14505794 -426.59228516 151.77783203 C-425.13933401 149.89871273 -423.69971321 148.01008492 -422.26220703 146.11914062 C-416.36408197 138.42049061 -410.08388758 131.18881953 -403.38134766 124.18017578 C-402.23766028 122.98200699 -401.10796847 121.7705082 -399.98095703 120.55664062 C-395.65178105 116.01828177 -390.86990349 112.19593753 -385.84765625 108.45898438 C-382.58302763 106.02312041 -379.63805845 103.47038275 -376.74658203 100.60742188 C-374.6998538 98.76449921 -373.63927865 97.87795726 -370.90283203 97.48632812 C-366.91859737 97.8255655 -364.59322782 98.8000223 -362.05908203 101.79492188 C-360.0774217 102.83078978 -358.07434372 103.82604606 -356.05908203 104.79492188 C-351.96674219 106.91687587 -348.22068535 109.23811794 -344.55908203 112.04492188 C-343.86814453 112.56570312 -343.17720703 113.08648437 -342.46533203 113.62304688 C-340.71513199 116.3261336 -340.75503344 118.16931045 -341.31103516 121.30078125 C-342.8110365 126.3020912 -345.24825938 130.89618913 -347.60565186 135.53970337 C-349.22454312 138.73224898 -350.80364614 141.94419103 -352.37939453 145.15820312 C-352.6947818 145.80071518 -353.01016907 146.44322723 -353.33511353 147.10520935 C-357.72760397 156.12789394 -361.43599885 165.44139225 -365.05908203 174.79492188 C-364.68251465 174.21991943 -364.30594727 173.64491699 -363.91796875 173.05249023 C-360.81820602 168.35512751 -357.63707867 163.80103231 -354.18408203 159.35742188 C-353.54128296 158.5302063 -353.54128296 158.5302063 -352.88549805 157.6862793 C-351.61359523 156.05300019 -350.33673089 154.42370758 -349.05908203 152.79492188 C-348.36427734 151.90289062 -347.66947266 151.01085937 -346.95361328 150.09179688 C-342.89479003 144.93927874 -338.6397759 140.01897999 -334.21923828 135.17382812 C-332.2563827 133.01220236 -330.33941943 130.81965926 -328.43408203 128.60742188 C-322.65989347 122.01588243 -316.4737872 116.36909648 -309.64111328 110.87304688 C-307.62587958 109.25110387 -305.64696348 107.60384084 -303.68408203 105.91992188 C-301.24091981 103.94212389 -298.74699492 102.40766961 -296.05908203 100.79492188 C-295.72908203 100.13492188 -295.39908203 99.47492188 -295.05908203 98.79492188 C-290.74714532 99.32997971 -287.62920441 100.31653061 -283.87158203 102.48242188 C-280.96054275 104.14644024 -278.06628528 105.79124944 -275.07861328 107.31445312 C-268.54394913 110.65674424 -263.48920517 113.50455246 -261.05908203 120.79492188 C-261.98074266 123.5816264 -262.98926113 126.21820583 -264.12158203 128.91992188 C-264.47373779 129.78101563 -264.82589355 130.64210937 -265.1887207 131.52929688 C-268.0875042 138.57223121 -271.08723722 145.57287568 -274.07446289 152.57861328 C-293.34871728 193.21463695 -293.34871728 193.21463695 -301.12158203 236.66992188 C-301.11481445 237.70246094 -301.11481445 237.70246094 -301.10791016 238.75585938 C-301.09624539 240.43558523 -301.07831474 242.11526563 -301.05908203 243.79492188 C-295.55949156 241.75675706 -291.97377585 239.31555657 -287.80908203 235.23242188 C-286.67684992 234.15238603 -285.54402743 233.07296878 -284.41064453 231.99414062 C-283.85022461 231.4557959 -283.28980469 230.91745117 -282.71240234 230.36279297 C-279.45065747 227.26962617 -276.05946434 224.31877081 -272.69189453 221.34179688 C-270.65132476 219.36783324 -268.83334877 217.41554024 -266.99267578 215.26757812 C-261.93528844 209.40971146 -256.46201718 203.95564557 -250.99658203 198.48242188 C-250.16379227 197.64762299 -250.16379227 197.64762299 -249.31417847 196.79595947 C-241.33011489 188.81606993 -233.30010195 181.31575161 -224.05908203 174.79492188 C-223.23537109 174.16457031 -222.41166016 173.53421875 -221.56298828 172.88476562 C-211.33901068 165.24616167 -199.71342176 159.84512772 -187.43798828 156.48632812 C-185.12470342 156.02109724 -185.12470342 156.02109724 -184.05908203 154.79492188 C-184.20751196 152.58361888 -184.40467139 150.37556059 -184.62158203 148.16992188 C-185.77224522 133.57853336 -182.98037004 119.02987756 -176.13818359 106.02587891 C-170.88906103 96.02420855 -168.50983033 86.85665759 -167.23403931 75.67199707 C-166.92543196 72.96916311 -166.58229297 70.27263095 -166.22973633 67.57519531 C-165.86389152 64.7755193 -165.49964914 61.9757871 -165.14537048 59.17462158 C-164.01440975 50.24524291 -162.68566216 41.35263446 -161.25811768 32.46618652 C-160.87947811 30.09438301 -160.51460429 27.7207344 -160.15039062 25.34667969 C-159.9190187 23.89699354 -159.68680676 22.44744112 -159.45361328 20.99804688 C-159.25614502 19.74668945 -159.05867676 18.49533203 -158.85522461 17.20605469 C-158.02787201 13.66120018 -156.94825102 10.90335821 -155.05908203 7.79492188 C-152.19580078 6.68554688 -152.19580078 6.68554688 -149.05908203 6.79492188 C-146.45361328 8.27929687 -146.45361328 8.27929687 -143.87158203 10.54492188 C-142.92283203 11.3725 -141.97408203 12.20007813 -140.99658203 13.05273438 C-137.07830965 16.66098387 -133.33508795 20.43736358 -129.60595703 24.24023438 C-126.91140419 26.94305271 -124.11475852 29.44624443 -121.21533203 31.92382812 C-118.46858072 34.30733153 -115.79682334 36.76952784 -113.12158203 39.23242188 C-112.35201172 39.9347998 -112.35201172 39.9347998 -111.56689453 40.65136719 C-109.16682178 42.84280417 -106.79704382 45.04946201 -104.46533203 47.31445312 C-103.30517578 48.41853516 -103.30517578 48.41853516 -102.12158203 49.54492188 C-101.45255859 50.19976562 -100.78353516 50.85460938 -100.09423828 51.52929688 C-98.10219804 53.04446207 -98.10219804 53.04446207 -95.55517578 52.61523438 C-93.26211188 51.8616453 -91.21153906 51.00455843 -89.05908203 49.91992188 C-76.58676291 44.31760148 -61.69121827 42.82695975 -48.25439453 45.57226562 C-45.02122173 46.14401512 -45.02122173 46.14401512 -42.79345703 44.12695312 C-42.13861328 43.29550781 -41.48376953 42.4640625 -40.80908203 41.60742188 C-40.05111328 40.68574219 -39.29314453 39.7640625 -38.51220703 38.81445312 C-37.70267578 37.81800781 -36.89314453 36.8215625 -36.05908203 35.79492188 C-34.25494997 33.7675914 -32.40752371 31.78181999 -30.55908203 29.79492188 C-27.16436776 26.10427324 -23.78795717 22.39774825 -20.43408203 18.66992188 C-19.71478516 17.87070312 -18.99548828 17.07148438 -18.25439453 16.24804688 C-16.72163576 14.5352844 -15.19615419 12.81599389 -13.67626953 11.09179688 C-12.89509766 10.21007813 -12.11392578 9.32835937 -11.30908203 8.41992188 C-10.61298828 7.6284375 -9.91689453 6.83695312 -9.19970703 6.02148438 C-3.11259153 -0.31000437 -3.11259153 -0.31000437 0 0 Z M75.62841797 183.44726562 C64.05100091 198.09993408 55.48340989 214.99101908 55.50732422 233.95507812 C56.01263384 237.26462855 56.91234054 239.1407514 58.94091797 241.79492188 C60.78153191 243.31515496 60.78153191 243.31515496 62.94091797 243.79492188 C71.23636722 241.60398669 77.95512659 233.62158179 83.94091797 227.79492188 C85.20548828 226.57289063 85.20548828 226.57289063 86.49560547 225.32617188 C88.68118644 223.1773852 90.8399931 221.02667356 92.94091797 218.79492188 C93.43108398 218.33279297 93.92125 217.87066406 94.42626953 217.39453125 C99.50163447 212.22222465 100.56610396 206.75514622 101.94091797 199.79492188 C103.86065517 190.89320226 106.17127295 182.77674726 109.93701172 174.49023438 C111.27646675 171.75578991 111.27646675 171.75578991 109.94091797 168.79492188 C96.68999889 161.38999651 83.78930164 174.0870629 75.62841797 183.44726562 Z M-367.05908203 176.79492188 C-366.05908203 178.79492188 -366.05908203 178.79492188 -366.05908203 178.79492188 Z M-368.05908203 178.79492188 C-367.05908203 180.79492188 -367.05908203 180.79492188 -367.05908203 180.79492188 Z M-120.05908203 283.79492188 C-120.05908203 284.12492187 -120.05908203 284.45492188 -120.05908203 284.79492188 C-117.41908203 284.79492188 -114.77908203 284.79492188 -112.05908203 284.79492188 C-112.05908203 284.46492188 -112.05908203 284.13492187 -112.05908203 283.79492188 C-114.69908203 283.79492188 -117.33908203 283.79492188 -120.05908203 283.79492188 Z " fill="#000000" transform="translate(615.05908203125,0.205078125)"/>
<path d="M0 0 C0.99 0 1.98 0 3 0 C3.2475 0.969375 3.495 1.93875 3.75 2.9375 C5.66730123 6.19123137 5.66730123 6.19123137 8.66015625 6.796875 C14.5237289 7.58138626 14.5237289 7.58138626 20.05078125 5.9296875 C21.82842658 4.43554232 21.82842658 4.43554232 24 2 C24.66 2 25.32 2 26 2 C26.495 6.95 26.495 6.95 27 12 C27.7425 12.268125 28.485 12.53625 29.25 12.8125 C31.86636554 13.94229421 33.80187111 15.20893202 36 17 C35.67 18.98 35.34 20.96 35 23 C36.32 23.66 37.64 24.32 39 25 C34.73043914 38.79396586 26.37807123 46.88386188 14 54 C9.09397673 56.48216457 4.50731883 57.86957666 -1 57 C-5.06424959 54.80691483 -8.73261338 52.26738662 -12 49 C-12.2165625 47.7625 -12.2165625 47.7625 -12.4375 46.5 C-12.7765556 43.65063471 -12.7765556 43.65063471 -16 42 C-17.00370475 36.98147623 -17.13353892 33.03795077 -16 28 C-15.34 28 -14.68 28 -14 28 C-14.33 26.68 -14.66 25.36 -15 24 C-14.01 23.67 -13.02 23.34 -12 23 C-11.82670166 21.89942261 -11.82670166 21.89942261 -11.64990234 20.77661133 C-10.58698074 16.23543649 -8.05043328 12.62727432 -5.625 8.6875 C-5.13 7.85154297 -4.635 7.01558594 -4.125 6.15429688 C-3.40183594 4.9699707 -3.40183594 4.9699707 -2.6640625 3.76171875 C-2.22529785 3.03944092 -1.7865332 2.31716309 -1.33447266 1.57299805 C-0.89409668 1.05390869 -0.4537207 0.53481934 0 0 Z " fill="#000000" transform="translate(93,36)"/>
<path d="M0 0 C2.99220268 1.36370299 5.29026529 2.94908083 7.75 5.125 C8.36359375 5.66382813 8.9771875 6.20265625 9.609375 6.7578125 C10.29773438 7.37269531 10.29773438 7.37269531 11 8 C5.41153678 14.54259109 5.41153678 14.54259109 3.39233398 16.78686523 C0.17464907 20.37198562 -2.69646815 23.98225672 -5.3984375 27.97265625 C-10.10900938 34.29881991 -15.21234368 40.77840435 -23.27838135 42.480896 C-37.49346015 44.20686561 -52.25266573 42.24909464 -66.38208008 40.44458008 C-69.47513176 40.06449727 -72.39029888 39.89430971 -75.5 39.9375 C-76.78390625 39.95103516 -76.78390625 39.95103516 -78.09375 39.96484375 C-78.7228125 39.97644531 -79.351875 39.98804688 -80 40 C-77.33746684 38.59027014 -74.80634369 37.56607922 -71.90234375 36.7734375 C-59.83045065 33.37591447 -48.40455982 29.21351306 -37 24 C-36.28827637 23.67773438 -35.57655273 23.35546875 -34.84326172 23.0234375 C-21.93503837 17.10879639 -10.5476293 9.54309317 0 0 Z " fill="#000000" transform="translate(624,240)"/>
<path d="M0 0 C-3.57544306 2.38362871 -7.06111371 3.12010332 -11.18359375 4.05859375 C-11.99433853 4.24841324 -12.80508331 4.43823273 -13.64039612 4.63380432 C-16.23812747 5.24080184 -18.837707 5.83940067 -21.4375 6.4375 C-23.99782574 7.03221087 -26.55774401 7.62864728 -29.11756897 8.22550964 C-30.78119512 8.61297694 -32.44512444 8.99914494 -34.10935974 9.38398743 C-38.66248675 10.43970462 -43.19454086 11.55164201 -47.71875 12.7265625 C-53.42644643 14.17307111 -58.98376602 14.75086444 -64.84765625 15.27734375 C-69.11714923 15.85169159 -72.89484048 17.37996448 -76.90454102 18.90551758 C-82.79470549 20.98814297 -88.87388346 22.39360881 -94.9375 23.875 C-95.9725618 24.13012863 -95.9725618 24.13012863 -97.02853394 24.39041138 C-139.90421126 34.94865378 -139.90421126 34.94865378 -155 35 C-155.33 33.68 -155.66 32.36 -156 31 C-155.24203125 30.92523438 -154.4840625 30.85046875 -153.703125 30.7734375 C-141.99238832 29.42219865 -130.58384425 26.85245104 -119.07952881 24.32411194 C-114.22409005 23.25975902 -109.36219955 22.22923627 -104.49609375 21.21484375 C-103.76193741 21.06172729 -103.02778107 20.90861084 -102.27137756 20.75085449 C-100.74967888 20.4335523 -99.22797572 20.11627156 -97.70626831 19.79901123 C-79.30849915 15.95958989 -60.95294029 11.93584794 -42.60693359 7.85668945 C-33.02485927 5.73011256 -23.43725238 3.63561005 -13.8203125 1.671875 C-13.00013641 1.50125549 -12.17996033 1.33063599 -11.33493042 1.15484619 C-7.49667044 0.38351443 -3.93889023 -0.21120584 0 0 Z " fill="#000000" transform="translate(217,357)"/>
</svg>
