<?xml version="1.0" encoding="UTF-8"?>
<svg version="1.1" xmlns="http://www.w3.org/2000/svg" width="216" height="219">
<path d="M0 0 C0.86625 0.12375 1.7325 0.2475 2.625 0.375 C5.83489744 5.83634826 6.84163279 11.40013091 8 17.58203125 C8.31590088 19.2019825 8.31590088 19.2019825 8.63818359 20.85466003 C9.30876928 24.29739239 9.96787583 27.74217485 10.625 31.1875 C11.28307826 34.62190624 11.94382216 38.05571292 12.61181641 41.48820496 C13.02635497 43.61962341 13.43521219 45.75215754 13.83740234 47.88594055 C15.00441809 53.90194503 16.51307472 59.62003737 18.625 65.375 C22.80975183 63.39664162 26.45394886 61.16527818 30.1875 58.4375 C36.09913722 54.23198359 42.2718902 50.54622314 48.5625 46.9375 C49.91226929 46.15741577 49.91226929 46.15741577 51.28930664 45.36157227 C52.15160889 44.87229248 53.01391113 44.3830127 53.90234375 43.87890625 C54.66796631 43.44392822 55.43358887 43.0089502 56.22241211 42.56079102 C58.625 41.375 58.625 41.375 64.625 39.375 C64.625 44.655 64.625 49.935 64.625 55.375 C62.294375 56.509375 59.96375 57.64375 57.5625 58.8125 C39.46882879 67.78678233 22.85317122 78.90655061 7.50390625 92.0390625 C6.39858072 92.98454246 5.29311018 93.92985292 4.1875 94.875 C3.37212769 95.5724231 3.37212769 95.5724231 2.5402832 96.28393555 C-2.56140895 100.60880498 -7.8932497 104.54107043 -13.375 108.375 C-14.365 107.50875 -15.355 106.6425 -16.375 105.75 C-24.73826472 98.617619 -32.80770088 92.072092 -44.375 92.375 C-54.69251754 94.19478262 -64.31496123 99.6661174 -71.375 107.375 C-73.36905858 110.24955199 -74.90466083 113.20597353 -76.375 116.375 C-76.973125 117.53 -77.57125 118.685 -78.1875 119.875 C-81.16508212 128.48072867 -80.57722627 139.47075416 -77.3125 147.875 C-73.13997663 156.41873832 -67.84547703 162.49351122 -60.09765625 167.96484375 C-59.52917969 168.43019531 -58.96070312 168.89554688 -58.375 169.375 C-58.375 170.035 -58.375 170.695 -58.375 171.375 C-71.39570008 175.92277051 -83.3200144 175.88447148 -95.796875 170.1484375 C-113.54425201 161.35224846 -125.844207 150.43241261 -132.4453125 131.42578125 C-138.0423668 113.05897702 -135.34585767 94.71669601 -127.375 77.375 C-126.68019531 76.26125 -125.98539063 75.1475 -125.26953125 74 C-123.08891202 70.24980574 -122.72767761 66.64644028 -122.5 62.375 C-121.77590488 53.249724 -120.19239605 44.34583038 -118.4375 35.375 C-118.30998352 34.7135498 -118.18246704 34.05209961 -118.05108643 33.37060547 C-113.41789486 9.41499195 -113.41789486 9.41499195 -109.375 6.375 C-105.86797136 6.2566906 -103.44937647 6.58249416 -100.57714844 8.70117188 C-98.71610589 10.44224639 -96.97645955 12.2505582 -95.25 14.125 C-94.65574219 14.74632812 -94.06148437 15.36765625 -93.44921875 16.0078125 C-92.28218713 17.22894492 -91.12121252 18.45589887 -89.96679688 19.68896484 C-88.59697844 21.13987989 -87.18863044 22.55424422 -85.7734375 23.9609375 C-84.05789424 25.68765694 -82.40488302 27.47740566 -80.796875 29.3046875 C-76.22540365 34.72766027 -76.22540365 34.72766027 -70.15234375 37.93359375 C-67.78207941 37.65447851 -65.66288439 37.05634488 -63.375 36.375 C-61.15145366 35.98710862 -58.92133988 35.63588439 -56.6875 35.3125 C-55.48738281 35.11914062 -54.28726563 34.92578125 -53.05078125 34.7265625 C-49.30372646 34.36818319 -46.10022092 34.74431996 -42.375 35.1875 C-37.70929522 35.27100255 -35.20431848 34.58213404 -31.8046875 31.5 C-28.69252301 28.31028705 -25.86137608 24.90388063 -23.06542969 21.43652344 C-20.46870126 18.26974486 -17.67428582 15.29949432 -14.875 12.3125 C-13.94780481 11.30088376 -13.02071692 10.28916916 -12.09375 9.27734375 C-11.1965625 8.31957031 -10.299375 7.36179687 -9.375 6.375 C-8.60422119 5.5387207 -8.60422119 5.5387207 -7.81787109 4.68554688 C-3.76277844 0.41808649 -3.76277844 0.41808649 0 0 Z " fill="#090A09" transform="translate(151.375,-0.375)"/>
<path d="M0 0 C0.20033671 5.97311593 0.34411624 11.94420597 0.43945312 17.91992188 C0.47926143 19.94500864 0.53353113 21.96987205 0.60351562 23.99414062 C1.05240352 37.32875167 -0.01304282 46.78522226 -7.02534485 58.23532104 C-13.02648862 69.100797 -16.28520218 83.62047897 -15 96 C-14.15836963 98.90978305 -13.18935564 101.81064436 -11 104 C-6.64286068 104.24663053 -3.79870734 104.12157386 0 102 C0.29146369 106.04013515 0.46829657 110.07757429 0.625 114.125 C0.70878906 115.26710938 0.79257813 116.40921875 0.87890625 117.5859375 C0.97767651 120.98363448 0.92739003 123.72533046 0 127 C-2.95089783 129.97048653 -6.13465863 131.47775616 -10 133 C-11.04929688 133.4434375 -12.09859375 133.886875 -13.1796875 134.34375 C-22.89964082 136.60545659 -31.75935298 135.72777688 -40.41015625 130.76953125 C-51.55222182 123.15662672 -56.55837278 112.38095812 -59.58984375 99.4921875 C-63.35322901 76.62514183 -52.45897936 50.71188817 -40 32 C-37.1385551 28.2023441 -34.11021405 24.59429405 -31 21 C-30.236875 19.96875 -29.47375 18.9375 -28.6875 17.875 C-22.32987443 11.07381916 -9.88052128 0 0 0 Z " fill="#090909" transform="translate(216,74)"/>
<path d="M0 0 C0.35191406 1.09957031 0.70382813 2.19914063 1.06640625 3.33203125 C6.19435088 18.89579302 13.05965144 30.70643429 27 40 C26.67 40.99 26.34 41.98 26 43 C23.83984375 43.81201172 23.83984375 43.81201172 20.9375 44.4296875 C19.84606689 44.66534424 18.75463379 44.90100098 17.63012695 45.14379883 C15.83321411 45.50574341 15.83321411 45.50574341 14 45.875 C12.76789795 46.13112061 11.5357959 46.38724121 10.26635742 46.65112305 C-4.72366126 49.68019418 -19.84970499 51.93844084 -35 54 C-35.81525146 54.1141626 -36.63050293 54.2283252 -37.47045898 54.34594727 C-44.18828268 55.20097099 -50.92300891 55.25732471 -57.6875 55.3125 C-58.88439453 55.34150391 -60.08128906 55.37050781 -61.31445312 55.40039062 C-72.15341242 55.47880268 -72.15341242 55.47880268 -77 51 C-80.40927346 47.32157337 -81.2989014 44.45589922 -81.5 39.5625 C-81.21033814 32.67602287 -79.28975184 29.13710172 -74.1875 24.375 C-63.80026364 17.72371351 -50.06129907 15.71038985 -38.29541016 12.73583984 C-30.96411444 10.85216802 -23.76873547 8.75443228 -16.625 6.25 C-15.81780518 5.96850098 -15.01061035 5.68700195 -14.17895508 5.39697266 C-9.47494024 3.69628647 -4.8840238 0 0 0 Z " fill="#0B0B0B" transform="translate(140,164)"/>
<path d="M0 0 C1.48046139 0.63282972 2.96092996 1.26564265 4.44140625 1.8984375 C5.47418701 2.34654785 5.47418701 2.34654785 6.52783203 2.80371094 C8.8144309 3.78710631 11.1202298 4.71644653 13.4375 5.625 C12.73625 6.305625 12.035 6.98625 11.3125 7.6875 C10.34918285 8.66176393 9.39128843 9.64140569 8.4375 10.625 C7.921875 11.15609375 7.40625 11.6871875 6.875 12.234375 C2.14172684 17.39364275 -0.20233442 22.20342703 -0.9375 29.1875 C-0.50651243 33.13821942 0.77423543 36.03234853 2.4375 39.625 C2.80342477 41.28481564 3.14326255 42.95098889 3.4375 44.625 C-1.66701702 44.72458538 -6.77095677 44.79680331 -11.8762207 44.84472656 C-13.60939395 44.8647241 -15.34250075 44.89193148 -17.07543945 44.92675781 C-37.09634968 45.31875951 -37.09634968 45.31875951 -44.71875 38.7734375 C-45.1621875 38.18820313 -45.605625 37.60296875 -46.0625 37 C-46.5265625 36.40960938 -46.990625 35.81921875 -47.46875 35.2109375 C-50.39859099 30.96266806 -50.06945147 26.62839062 -49.5625 21.625 C-47.69434504 14.94961827 -43.22884971 10.38840768 -37.5625 6.625 C-32.71211253 3.96430335 -27.65166024 1.78217964 -22.5625 -0.375 C-21.30759766 -0.92220703 -21.30759766 -0.92220703 -20.02734375 -1.48046875 C-12.34220543 -4.63448505 -7.24486114 -3.18900438 0 0 Z " fill="#090A09" transform="translate(49.5625,174.375)"/>
<path d="M0 0 C1.5 1.3125 1.5 1.3125 3 3 C3 3.99 3 4.98 3 6 C-2.15949111 6.04960315 -7.318842 6.08581559 -12.47851562 6.10986328 C-14.23212097 6.11989313 -15.9857097 6.13352029 -17.73925781 6.15087891 C-20.26631785 6.1752603 -22.7931559 6.1865134 -25.3203125 6.1953125 C-26.48785568 6.21079636 -26.48785568 6.21079636 -27.6789856 6.22659302 C-32.18365862 6.2275122 -35.75439088 5.70651048 -40 4 C-35.81439292 2.81369077 -31.82696808 2.97330663 -27.515625 3.12109375 C-26.70003113 3.14470474 -25.88443726 3.16831573 -25.04412842 3.19264221 C-22.4458986 3.26905433 -19.84798386 3.35317484 -17.25 3.4375 C-15.48569236 3.49074319 -13.72136947 3.54348343 -11.95703125 3.59570312 C-7.63782231 3.72463899 -3.31887972 3.8604874 1 4 C0.505 2.02 0.505 2.02 0 0 Z " fill="#5E5E5E" transform="translate(50,213)"/>
<path d="M0 0 C0.66 0.33 1.32 0.66 2 1 C1.54109375 1.51949219 1.0821875 2.03898438 0.609375 2.57421875 C-7.36586045 10.70326141 -7.36586045 10.70326141 -10.0625 21.125 C-10.05347656 22.03507812 -10.04445313 22.94515625 -10.03515625 23.8828125 C-10.02355469 24.58148438 -10.01195312 25.28015625 -10 26 C-9.34 26 -8.68 26 -8 26 C-7.67 27.65 -7.34 29.3 -7 31 C-10.72764966 27.39259711 -12.15943522 25.57920247 -12.3125 20.375 C-12.21039137 13.92359111 -10.53047681 9.53530596 -5.953125 4.94921875 C-4.01276732 3.23248385 -2.04572433 1.5889121 0 0 Z " fill="#686A68" transform="translate(12,181)"/>
<path d="M0 0 C0.66 0.33 1.32 0.66 2 1 C-2.75 6.875 -2.75 6.875 -5 8 C-5.31241371 10.54941373 -5.51303421 13.00361513 -5.625 15.5625 C-5.66367187 16.27341797 -5.70234375 16.98433594 -5.7421875 17.71679688 C-5.83671783 19.47742425 -5.91945817 21.23867728 -6 23 C-8.55403148 20.44596852 -8.32607024 19.35990775 -8.375 15.8125 C-8.27409355 10.31309859 -7.28882297 7.38509729 -4 3 C-1.75 1.0625 -1.75 1.0625 0 0 Z " fill="#575757" transform="translate(67,188)"/>
<path d="M0 0 C0.66 0.33 1.32 0.66 2 1 C0.09042286 3.13176064 -1.82708763 5.2553245 -3.75 7.375 C-4.55824219 8.27992187 -4.55824219 8.27992187 -5.3828125 9.203125 C-5.91132813 9.78320312 -6.43984375 10.36328125 -6.984375 10.9609375 C-7.70705566 11.76217041 -7.70705566 11.76217041 -8.44433594 12.57958984 C-10.16979726 14.1550346 -11.87547258 15.04997548 -14 16 C-10.88847163 9.29260159 -5.73988517 4.50990977 0 0 Z " fill="#60615F" transform="translate(196,84)"/>
<path d="M0 0 C0 0.33 0 0.66 0 1 C-2.70726366 1.5064814 -5.41557124 2.005351 -8.125 2.5 C-9.26582031 2.71462891 -9.26582031 2.71462891 -10.4296875 2.93359375 C-14.68042914 3.70312456 -18.65859197 4.16644376 -23 4 C-22.360625 3.690625 -21.72125 3.38125 -21.0625 3.0625 C-19.06389179 2.1654837 -19.06389179 2.1654837 -18 1 C-16.10985552 0.76189471 -14.21188854 0.58468509 -12.3125 0.4375 C-11.27738281 0.35371094 -10.24226562 0.26992187 -9.17578125 0.18359375 C-6.10862687 0.00627978 -3.07144125 -0.03223402 0 0 Z " fill="#888986" transform="translate(143,211)"/>
<path d="M0 0 C0.66 0.33 1.32 0.66 2 1 C-3.14285714 7.57142857 -3.14285714 7.57142857 -7 9 C-5.44499019 5.18315774 -2.96404505 2.80804268 0 0 Z " fill="#616261" transform="translate(67,188)"/>
<path d="M0 0 C0 0.66 0 1.32 0 2 C-1.24176695 2.70226141 -2.49385599 3.38629109 -3.75 4.0625 C-4.79414063 4.63677734 -4.79414063 4.63677734 -5.859375 5.22265625 C-8.36140628 6.1312406 -9.5332355 5.88336837 -12 5 C-10.37750059 4.16180842 -8.75191503 3.3295884 -7.125 2.5 C-6.22007812 2.0359375 -5.31515625 1.571875 -4.3828125 1.09375 C-2 0 -2 0 0 0 Z " fill="#797978" transform="translate(216,74)"/>
<path d="M0 0 C1.9375 0.8125 1.9375 0.8125 4 2 C4.33 2.99 4.66 3.98 5 5 C2.69 5.33 0.38 5.66 -2 6 C-1.01 5.34 -0.02 4.68 1 4 C0.67 2.68 0.34 1.36 0 0 Z " fill="#7A7C79" transform="translate(88,166)"/>
</svg>
